<mxfile host="app.diagrams.net" modified="2024-05-15T14:59:45.487Z" agent="Mozilla/5.0 (Windows NT 10.0; Win64; x64) AppleWebKit/537.36 (KHTML, like Gecko) Chrome/124.0.0.0 Safari/537.36" etag="q_T27EA0DQdRwVpJ-acO" version="24.4.0" type="google" pages="3">
  <diagram name="sellers" id="QSAbpQ3-6waGqE9Duxet">
    <mxGraphModel dx="1442" dy="2030" grid="0" gridSize="10" guides="1" tooltips="1" connect="1" arrows="1" fold="1" page="0" pageScale="1" pageWidth="827" pageHeight="1169" math="0" shadow="0">
      <root>
        <mxCell id="0" />
        <mxCell id="1" parent="0" />
        <mxCell id="EJpp4qmtwIGTxCm6Wxpx-1" style="edgeStyle=none;curved=1;rounded=0;orthogonalLoop=1;jettySize=auto;html=1;exitX=0.5;exitY=1;exitDx=0;exitDy=0;entryX=0.5;entryY=0;entryDx=0;entryDy=0;fontSize=12;startSize=8;endSize=8;" edge="1" parent="1" source="EJpp4qmtwIGTxCm6Wxpx-3" target="EJpp4qmtwIGTxCm6Wxpx-15">
          <mxGeometry relative="1" as="geometry" />
        </mxCell>
        <mxCell id="EJpp4qmtwIGTxCm6Wxpx-2" style="edgeStyle=none;curved=1;rounded=0;orthogonalLoop=1;jettySize=auto;html=1;exitX=0;exitY=0.5;exitDx=0;exitDy=0;fontSize=12;startSize=8;endSize=8;" edge="1" parent="1" source="EJpp4qmtwIGTxCm6Wxpx-3" target="EJpp4qmtwIGTxCm6Wxpx-17">
          <mxGeometry relative="1" as="geometry" />
        </mxCell>
        <mxCell id="EJpp4qmtwIGTxCm6Wxpx-3" value="&lt;font style=&quot;font-size: 16px;&quot;&gt;seller 1&lt;/font&gt;" style="ellipse;whiteSpace=wrap;html=1;aspect=fixed;" vertex="1" parent="1">
          <mxGeometry x="-14" y="-180" width="80" height="80" as="geometry" />
        </mxCell>
        <mxCell id="EJpp4qmtwIGTxCm6Wxpx-22" style="edgeStyle=none;curved=1;rounded=0;orthogonalLoop=1;jettySize=auto;html=1;fontSize=12;startSize=8;endSize=8;" edge="1" parent="1" source="EJpp4qmtwIGTxCm6Wxpx-5" target="EJpp4qmtwIGTxCm6Wxpx-11">
          <mxGeometry relative="1" as="geometry" />
        </mxCell>
        <mxCell id="EJpp4qmtwIGTxCm6Wxpx-5" value="&lt;font style=&quot;font-size: 16px;&quot;&gt;seller 3&lt;/font&gt;" style="ellipse;whiteSpace=wrap;html=1;aspect=fixed;" vertex="1" parent="1">
          <mxGeometry x="330" y="-209" width="80" height="80" as="geometry" />
        </mxCell>
        <mxCell id="EJpp4qmtwIGTxCm6Wxpx-6" style="edgeStyle=none;curved=1;rounded=0;orthogonalLoop=1;jettySize=auto;html=1;exitX=0.5;exitY=1;exitDx=0;exitDy=0;fontSize=12;startSize=8;endSize=8;" edge="1" parent="1" source="EJpp4qmtwIGTxCm6Wxpx-7" target="EJpp4qmtwIGTxCm6Wxpx-9">
          <mxGeometry relative="1" as="geometry" />
        </mxCell>
        <mxCell id="EJpp4qmtwIGTxCm6Wxpx-7" value="&lt;font style=&quot;font-size: 16px;&quot;&gt;seller 2&lt;/font&gt;" style="ellipse;whiteSpace=wrap;html=1;aspect=fixed;" vertex="1" parent="1">
          <mxGeometry x="400" y="-17" width="80" height="80" as="geometry" />
        </mxCell>
        <mxCell id="EJpp4qmtwIGTxCm6Wxpx-8" style="edgeStyle=none;curved=1;rounded=0;orthogonalLoop=1;jettySize=auto;html=1;exitX=0;exitY=0;exitDx=0;exitDy=0;fontSize=12;startSize=8;endSize=8;" edge="1" parent="1" source="EJpp4qmtwIGTxCm6Wxpx-9" target="EJpp4qmtwIGTxCm6Wxpx-11">
          <mxGeometry relative="1" as="geometry" />
        </mxCell>
        <mxCell id="EJpp4qmtwIGTxCm6Wxpx-9" value="&lt;font style=&quot;font-size: 16px;&quot;&gt;seller 4&lt;/font&gt;" style="ellipse;whiteSpace=wrap;html=1;aspect=fixed;" vertex="1" parent="1">
          <mxGeometry x="233" y="-10" width="80" height="80" as="geometry" />
        </mxCell>
        <mxCell id="EJpp4qmtwIGTxCm6Wxpx-10" style="edgeStyle=none;curved=1;rounded=0;orthogonalLoop=1;jettySize=auto;html=1;fontSize=12;startSize=8;endSize=8;" edge="1" parent="1" source="EJpp4qmtwIGTxCm6Wxpx-11" target="EJpp4qmtwIGTxCm6Wxpx-3">
          <mxGeometry relative="1" as="geometry" />
        </mxCell>
        <mxCell id="EJpp4qmtwIGTxCm6Wxpx-11" value="&lt;font style=&quot;font-size: 16px;&quot;&gt;seller 5&lt;/font&gt;" style="ellipse;whiteSpace=wrap;html=1;aspect=fixed;" vertex="1" parent="1">
          <mxGeometry x="169" y="-158" width="80" height="80" as="geometry" />
        </mxCell>
        <mxCell id="EJpp4qmtwIGTxCm6Wxpx-12" style="edgeStyle=none;curved=1;rounded=0;orthogonalLoop=1;jettySize=auto;html=1;exitX=0.5;exitY=1;exitDx=0;exitDy=0;entryX=0.5;entryY=0;entryDx=0;entryDy=0;fontSize=12;startSize=8;endSize=8;" edge="1" parent="1" source="EJpp4qmtwIGTxCm6Wxpx-13" target="EJpp4qmtwIGTxCm6Wxpx-19">
          <mxGeometry relative="1" as="geometry" />
        </mxCell>
        <mxCell id="EJpp4qmtwIGTxCm6Wxpx-13" value="&lt;font style=&quot;font-size: 16px;&quot;&gt;seller 8&lt;/font&gt;" style="ellipse;whiteSpace=wrap;html=1;aspect=fixed;" vertex="1" parent="1">
          <mxGeometry x="395" y="-409" width="80" height="80" as="geometry" />
        </mxCell>
        <mxCell id="EJpp4qmtwIGTxCm6Wxpx-14" style="edgeStyle=none;curved=1;rounded=0;orthogonalLoop=1;jettySize=auto;html=1;exitX=0.5;exitY=1;exitDx=0;exitDy=0;entryX=0;entryY=1;entryDx=0;entryDy=0;fontSize=12;startSize=8;endSize=8;" edge="1" parent="1" source="EJpp4qmtwIGTxCm6Wxpx-15" target="EJpp4qmtwIGTxCm6Wxpx-9">
          <mxGeometry relative="1" as="geometry" />
        </mxCell>
        <mxCell id="EJpp4qmtwIGTxCm6Wxpx-15" value="&lt;font style=&quot;font-size: 16px;&quot;&gt;seller 6&lt;/font&gt;" style="ellipse;whiteSpace=wrap;html=1;aspect=fixed;" vertex="1" parent="1">
          <mxGeometry x="46" y="-1" width="80" height="80" as="geometry" />
        </mxCell>
        <mxCell id="EJpp4qmtwIGTxCm6Wxpx-16" style="edgeStyle=none;curved=1;rounded=0;orthogonalLoop=1;jettySize=auto;html=1;exitX=1;exitY=0.5;exitDx=0;exitDy=0;entryX=0;entryY=0.5;entryDx=0;entryDy=0;fontSize=12;startSize=8;endSize=8;" edge="1" parent="1" source="EJpp4qmtwIGTxCm6Wxpx-17" target="EJpp4qmtwIGTxCm6Wxpx-13">
          <mxGeometry relative="1" as="geometry" />
        </mxCell>
        <mxCell id="EJpp4qmtwIGTxCm6Wxpx-17" value="&lt;font style=&quot;font-size: 16px;&quot;&gt;seller 9&lt;/font&gt;" style="ellipse;whiteSpace=wrap;html=1;aspect=fixed;" vertex="1" parent="1">
          <mxGeometry x="42" y="-390" width="80" height="80" as="geometry" />
        </mxCell>
        <mxCell id="EJpp4qmtwIGTxCm6Wxpx-18" style="edgeStyle=none;curved=1;rounded=0;orthogonalLoop=1;jettySize=auto;html=1;exitX=0.5;exitY=1;exitDx=0;exitDy=0;entryX=1.012;entryY=0.286;entryDx=0;entryDy=0;fontSize=12;startSize=8;endSize=8;entryPerimeter=0;" edge="1" parent="1" source="EJpp4qmtwIGTxCm6Wxpx-19" target="EJpp4qmtwIGTxCm6Wxpx-7">
          <mxGeometry relative="1" as="geometry" />
        </mxCell>
        <mxCell id="EJpp4qmtwIGTxCm6Wxpx-19" value="&lt;font style=&quot;font-size: 16px;&quot;&gt;seller 7&lt;/font&gt;" style="ellipse;whiteSpace=wrap;html=1;aspect=fixed;" vertex="1" parent="1">
          <mxGeometry x="492" y="-180" width="80" height="80" as="geometry" />
        </mxCell>
        <mxCell id="EJpp4qmtwIGTxCm6Wxpx-20" style="edgeStyle=none;curved=1;rounded=0;orthogonalLoop=1;jettySize=auto;html=1;exitX=1;exitY=0.5;exitDx=0;exitDy=0;entryX=0;entryY=0.5;entryDx=0;entryDy=0;fontSize=12;startSize=8;endSize=8;" edge="1" parent="1" source="EJpp4qmtwIGTxCm6Wxpx-21" target="EJpp4qmtwIGTxCm6Wxpx-17">
          <mxGeometry relative="1" as="geometry" />
        </mxCell>
        <mxCell id="EJpp4qmtwIGTxCm6Wxpx-21" value="&lt;font style=&quot;font-size: 16px;&quot;&gt;seller 10&lt;/font&gt;" style="ellipse;whiteSpace=wrap;html=1;aspect=fixed;" vertex="1" parent="1">
          <mxGeometry x="-118" y="-390" width="80" height="80" as="geometry" />
        </mxCell>
      </root>
    </mxGraphModel>
  </diagram>
  <diagram id="LdZrdWaPqOrcxegc6WqP" name="selling">
    <mxGraphModel dx="2289" dy="2157" grid="0" gridSize="10" guides="1" tooltips="1" connect="1" arrows="1" fold="1" page="0" pageScale="1" pageWidth="827" pageHeight="1169" math="0" shadow="0">
      <root>
        <mxCell id="0" />
        <mxCell id="1" parent="0" />
        <mxCell id="r7cBjX9USFLNLwyzZqGg-1" style="edgeStyle=none;curved=1;rounded=0;orthogonalLoop=1;jettySize=auto;html=1;exitX=0.5;exitY=1;exitDx=0;exitDy=0;fontSize=12;startSize=8;endSize=8;" edge="1" parent="1" source="r7cBjX9USFLNLwyzZqGg-3" target="r7cBjX9USFLNLwyzZqGg-25">
          <mxGeometry relative="1" as="geometry" />
        </mxCell>
        <mxCell id="r7cBjX9USFLNLwyzZqGg-2" style="edgeStyle=none;curved=1;rounded=0;orthogonalLoop=1;jettySize=auto;html=1;exitX=0.5;exitY=1;exitDx=0;exitDy=0;entryX=0.5;entryY=0;entryDx=0;entryDy=0;fontSize=12;startSize=8;endSize=8;" edge="1" parent="1" source="r7cBjX9USFLNLwyzZqGg-3" target="r7cBjX9USFLNLwyzZqGg-22">
          <mxGeometry relative="1" as="geometry" />
        </mxCell>
        <mxCell id="r7cBjX9USFLNLwyzZqGg-3" value="&lt;span style=&quot;font-size: 16px;&quot;&gt;seller 1&lt;/span&gt;" style="ellipse;whiteSpace=wrap;html=1;aspect=fixed;" vertex="1" parent="1">
          <mxGeometry x="-235" y="-6" width="80" height="80" as="geometry" />
        </mxCell>
        <mxCell id="r7cBjX9USFLNLwyzZqGg-4" style="edgeStyle=none;curved=1;rounded=0;orthogonalLoop=1;jettySize=auto;html=1;exitX=0.5;exitY=1;exitDx=0;exitDy=0;entryX=0.5;entryY=0;entryDx=0;entryDy=0;fontSize=12;startSize=8;endSize=8;" edge="1" parent="1" source="r7cBjX9USFLNLwyzZqGg-5" target="r7cBjX9USFLNLwyzZqGg-30">
          <mxGeometry relative="1" as="geometry" />
        </mxCell>
        <mxCell id="r7cBjX9USFLNLwyzZqGg-5" value="&lt;span style=&quot;font-size: 16px;&quot;&gt;seller 3&lt;/span&gt;" style="ellipse;whiteSpace=wrap;html=1;aspect=fixed;" vertex="1" parent="1">
          <mxGeometry x="334" y="-27" width="80" height="80" as="geometry" />
        </mxCell>
        <mxCell id="r7cBjX9USFLNLwyzZqGg-6" style="edgeStyle=none;curved=1;rounded=0;orthogonalLoop=1;jettySize=auto;html=1;exitX=0.5;exitY=1;exitDx=0;exitDy=0;entryX=0.5;entryY=0;entryDx=0;entryDy=0;fontSize=12;startSize=8;endSize=8;" edge="1" parent="1" source="r7cBjX9USFLNLwyzZqGg-7" target="r7cBjX9USFLNLwyzZqGg-31">
          <mxGeometry relative="1" as="geometry" />
        </mxCell>
        <mxCell id="r7cBjX9USFLNLwyzZqGg-7" value="&lt;span style=&quot;font-size: 16px;&quot;&gt;seller 2&lt;/span&gt;" style="ellipse;whiteSpace=wrap;html=1;aspect=fixed;" vertex="1" parent="1">
          <mxGeometry x="114" y="-21" width="80" height="80" as="geometry" />
        </mxCell>
        <mxCell id="r7cBjX9USFLNLwyzZqGg-8" style="edgeStyle=none;curved=1;rounded=0;orthogonalLoop=1;jettySize=auto;html=1;exitX=0.5;exitY=1;exitDx=0;exitDy=0;entryX=0.5;entryY=0;entryDx=0;entryDy=0;fontSize=12;startSize=8;endSize=8;" edge="1" parent="1" source="r7cBjX9USFLNLwyzZqGg-9" target="r7cBjX9USFLNLwyzZqGg-26">
          <mxGeometry relative="1" as="geometry" />
        </mxCell>
        <mxCell id="r7cBjX9USFLNLwyzZqGg-9" value="&lt;span style=&quot;font-size: 16px;&quot;&gt;seller 4&lt;/span&gt;" style="ellipse;whiteSpace=wrap;html=1;aspect=fixed;" vertex="1" parent="1">
          <mxGeometry x="-450" y="-14" width="80" height="80" as="geometry" />
        </mxCell>
        <mxCell id="r7cBjX9USFLNLwyzZqGg-10" style="edgeStyle=none;curved=1;rounded=0;orthogonalLoop=1;jettySize=auto;html=1;exitX=0.5;exitY=1;exitDx=0;exitDy=0;entryX=0.5;entryY=0;entryDx=0;entryDy=0;fontSize=12;startSize=8;endSize=8;" edge="1" parent="1" source="r7cBjX9USFLNLwyzZqGg-11" target="r7cBjX9USFLNLwyzZqGg-23">
          <mxGeometry relative="1" as="geometry" />
        </mxCell>
        <mxCell id="r7cBjX9USFLNLwyzZqGg-11" value="&lt;span style=&quot;font-size: 16px;&quot;&gt;seller 5&lt;/span&gt;" style="ellipse;whiteSpace=wrap;html=1;aspect=fixed;" vertex="1" parent="1">
          <mxGeometry x="-67" y="-24" width="80" height="80" as="geometry" />
        </mxCell>
        <mxCell id="r7cBjX9USFLNLwyzZqGg-12" style="edgeStyle=none;curved=1;rounded=0;orthogonalLoop=1;jettySize=auto;html=1;exitX=0.5;exitY=1;exitDx=0;exitDy=0;fontSize=12;startSize=8;endSize=8;" edge="1" parent="1" source="r7cBjX9USFLNLwyzZqGg-13" target="r7cBjX9USFLNLwyzZqGg-24">
          <mxGeometry relative="1" as="geometry" />
        </mxCell>
        <mxCell id="r7cBjX9USFLNLwyzZqGg-13" value="&lt;span style=&quot;font-size: 16px;&quot;&gt;seller 8&lt;/span&gt;" style="ellipse;whiteSpace=wrap;html=1;aspect=fixed;" vertex="1" parent="1">
          <mxGeometry x="26" y="-27" width="80" height="80" as="geometry" />
        </mxCell>
        <mxCell id="r7cBjX9USFLNLwyzZqGg-14" style="edgeStyle=none;curved=1;rounded=0;orthogonalLoop=1;jettySize=auto;html=1;exitX=0.5;exitY=1;exitDx=0;exitDy=0;fontSize=12;startSize=8;endSize=8;" edge="1" parent="1" source="r7cBjX9USFLNLwyzZqGg-15" target="r7cBjX9USFLNLwyzZqGg-29">
          <mxGeometry relative="1" as="geometry" />
        </mxCell>
        <mxCell id="r7cBjX9USFLNLwyzZqGg-15" value="&lt;span style=&quot;font-size: 16px;&quot;&gt;seller 6&lt;/span&gt;" style="ellipse;whiteSpace=wrap;html=1;aspect=fixed;" vertex="1" parent="1">
          <mxGeometry x="446" y="-23" width="80" height="80" as="geometry" />
        </mxCell>
        <mxCell id="r7cBjX9USFLNLwyzZqGg-16" style="edgeStyle=none;curved=1;rounded=0;orthogonalLoop=1;jettySize=auto;html=1;exitX=0.5;exitY=1;exitDx=0;exitDy=0;entryX=0.5;entryY=0;entryDx=0;entryDy=0;fontSize=12;startSize=8;endSize=8;" edge="1" parent="1" source="r7cBjX9USFLNLwyzZqGg-17" target="r7cBjX9USFLNLwyzZqGg-27">
          <mxGeometry relative="1" as="geometry" />
        </mxCell>
        <mxCell id="r7cBjX9USFLNLwyzZqGg-17" value="&lt;span style=&quot;font-size: 16px;&quot;&gt;seller 9&lt;/span&gt;" style="ellipse;whiteSpace=wrap;html=1;aspect=fixed;" vertex="1" parent="1">
          <mxGeometry x="-561" y="-14" width="80" height="80" as="geometry" />
        </mxCell>
        <mxCell id="r7cBjX9USFLNLwyzZqGg-18" style="edgeStyle=none;curved=1;rounded=0;orthogonalLoop=1;jettySize=auto;html=1;exitX=0.5;exitY=1;exitDx=0;exitDy=0;entryX=0.5;entryY=0;entryDx=0;entryDy=0;fontSize=12;startSize=8;endSize=8;" edge="1" parent="1" source="r7cBjX9USFLNLwyzZqGg-19" target="r7cBjX9USFLNLwyzZqGg-31">
          <mxGeometry relative="1" as="geometry" />
        </mxCell>
        <mxCell id="r7cBjX9USFLNLwyzZqGg-19" value="&lt;span style=&quot;font-size: 16px;&quot;&gt;seller 7&lt;/span&gt;" style="ellipse;whiteSpace=wrap;html=1;aspect=fixed;" vertex="1" parent="1">
          <mxGeometry x="215" y="-21" width="80" height="80" as="geometry" />
        </mxCell>
        <mxCell id="r7cBjX9USFLNLwyzZqGg-20" style="edgeStyle=none;curved=1;rounded=0;orthogonalLoop=1;jettySize=auto;html=1;exitX=0.5;exitY=1;exitDx=0;exitDy=0;entryX=0.5;entryY=0;entryDx=0;entryDy=0;fontSize=12;startSize=8;endSize=8;" edge="1" parent="1" source="r7cBjX9USFLNLwyzZqGg-21" target="r7cBjX9USFLNLwyzZqGg-28">
          <mxGeometry relative="1" as="geometry" />
        </mxCell>
        <mxCell id="r7cBjX9USFLNLwyzZqGg-21" value="&lt;font style=&quot;font-size: 16px;&quot;&gt;seller 10&lt;/font&gt;" style="ellipse;whiteSpace=wrap;html=1;aspect=fixed;" vertex="1" parent="1">
          <mxGeometry x="-681" y="-14" width="80" height="80" as="geometry" />
        </mxCell>
        <mxCell id="r7cBjX9USFLNLwyzZqGg-22" value="&lt;font style=&quot;font-size: 16px;&quot;&gt;product 9&lt;/font&gt;" style="whiteSpace=wrap;html=1;aspect=fixed;" vertex="1" parent="1">
          <mxGeometry x="-287" y="125" width="80" height="80" as="geometry" />
        </mxCell>
        <mxCell id="r7cBjX9USFLNLwyzZqGg-23" value="&lt;font style=&quot;font-size: 16px;&quot;&gt;product 1&lt;/font&gt;" style="whiteSpace=wrap;html=1;aspect=fixed;" vertex="1" parent="1">
          <mxGeometry x="-67" y="125" width="80" height="80" as="geometry" />
        </mxCell>
        <mxCell id="r7cBjX9USFLNLwyzZqGg-24" value="&lt;font style=&quot;font-size: 16px;&quot;&gt;product 7&lt;/font&gt;" style="whiteSpace=wrap;html=1;aspect=fixed;" vertex="1" parent="1">
          <mxGeometry x="39" y="129" width="80" height="80" as="geometry" />
        </mxCell>
        <mxCell id="r7cBjX9USFLNLwyzZqGg-25" value="&lt;font style=&quot;font-size: 16px;&quot;&gt;product 6&lt;/font&gt;" style="whiteSpace=wrap;html=1;aspect=fixed;" vertex="1" parent="1">
          <mxGeometry x="-177" y="125" width="80" height="80" as="geometry" />
        </mxCell>
        <mxCell id="r7cBjX9USFLNLwyzZqGg-26" value="&lt;font style=&quot;font-size: 16px;&quot;&gt;product 3&lt;/font&gt;" style="whiteSpace=wrap;html=1;aspect=fixed;" vertex="1" parent="1">
          <mxGeometry x="-446" y="119" width="80" height="80" as="geometry" />
        </mxCell>
        <mxCell id="r7cBjX9USFLNLwyzZqGg-27" value="&lt;font style=&quot;font-size: 16px;&quot;&gt;product 8&lt;/font&gt;" style="whiteSpace=wrap;html=1;aspect=fixed;" vertex="1" parent="1">
          <mxGeometry x="-563" y="119" width="80" height="80" as="geometry" />
        </mxCell>
        <mxCell id="r7cBjX9USFLNLwyzZqGg-28" value="&lt;font style=&quot;font-size: 16px;&quot;&gt;product 10&lt;/font&gt;" style="whiteSpace=wrap;html=1;aspect=fixed;" vertex="1" parent="1">
          <mxGeometry x="-681" y="119" width="80" height="80" as="geometry" />
        </mxCell>
        <mxCell id="r7cBjX9USFLNLwyzZqGg-29" value="&lt;font style=&quot;font-size: 16px;&quot;&gt;product 3&lt;/font&gt;" style="whiteSpace=wrap;html=1;aspect=fixed;" vertex="1" parent="1">
          <mxGeometry x="451" y="125" width="80" height="80" as="geometry" />
        </mxCell>
        <mxCell id="r7cBjX9USFLNLwyzZqGg-30" value="&lt;font style=&quot;font-size: 16px;&quot;&gt;product 5&lt;/font&gt;" style="whiteSpace=wrap;html=1;aspect=fixed;" vertex="1" parent="1">
          <mxGeometry x="340" y="129" width="80" height="80" as="geometry" />
        </mxCell>
        <mxCell id="r7cBjX9USFLNLwyzZqGg-31" value="&lt;font style=&quot;font-size: 16px;&quot;&gt;product 2&lt;/font&gt;" style="whiteSpace=wrap;html=1;aspect=fixed;" vertex="1" parent="1">
          <mxGeometry x="160" y="129" width="80" height="80" as="geometry" />
        </mxCell>
      </root>
    </mxGraphModel>
  </diagram>
  <diagram id="P3QQMfCROpOacyhXg-kr" name="buying">
    <mxGraphModel dx="2403" dy="1757" grid="0" gridSize="10" guides="1" tooltips="1" connect="1" arrows="1" fold="1" page="0" pageScale="1" pageWidth="827" pageHeight="1169" math="0" shadow="0">
      <root>
        <mxCell id="0" />
        <mxCell id="1" parent="0" />
        <mxCell id="gaSyIaodAYESUQT2QhOO-1" style="edgeStyle=none;curved=1;rounded=0;orthogonalLoop=1;jettySize=auto;html=1;exitX=0.5;exitY=1;exitDx=0;exitDy=0;fontSize=12;startSize=8;endSize=8;" edge="1" parent="1" source="gaSyIaodAYESUQT2QhOO-3" target="gaSyIaodAYESUQT2QhOO-25">
          <mxGeometry relative="1" as="geometry" />
        </mxCell>
        <mxCell id="gaSyIaodAYESUQT2QhOO-2" style="edgeStyle=none;curved=1;rounded=0;orthogonalLoop=1;jettySize=auto;html=1;exitX=0.5;exitY=1;exitDx=0;exitDy=0;entryX=0.5;entryY=0;entryDx=0;entryDy=0;fontSize=12;startSize=8;endSize=8;" edge="1" parent="1" source="gaSyIaodAYESUQT2QhOO-3" target="gaSyIaodAYESUQT2QhOO-22">
          <mxGeometry relative="1" as="geometry" />
        </mxCell>
        <mxCell id="gaSyIaodAYESUQT2QhOO-3" value="&lt;span style=&quot;font-size: 16px;&quot;&gt;buyer 1&lt;/span&gt;" style="ellipse;whiteSpace=wrap;html=1;aspect=fixed;" vertex="1" parent="1">
          <mxGeometry x="-362" y="30" width="80" height="80" as="geometry" />
        </mxCell>
        <mxCell id="gaSyIaodAYESUQT2QhOO-4" style="edgeStyle=none;curved=1;rounded=0;orthogonalLoop=1;jettySize=auto;html=1;exitX=0.5;exitY=1;exitDx=0;exitDy=0;entryX=0.5;entryY=0;entryDx=0;entryDy=0;fontSize=12;startSize=8;endSize=8;" edge="1" parent="1" source="gaSyIaodAYESUQT2QhOO-5" target="gaSyIaodAYESUQT2QhOO-30">
          <mxGeometry relative="1" as="geometry" />
        </mxCell>
        <mxCell id="gaSyIaodAYESUQT2QhOO-5" value="&lt;font style=&quot;font-size: 16px;&quot;&gt;buyer 3&lt;/font&gt;" style="ellipse;whiteSpace=wrap;html=1;aspect=fixed;" vertex="1" parent="1">
          <mxGeometry x="-967" y="52" width="80" height="80" as="geometry" />
        </mxCell>
        <mxCell id="gaSyIaodAYESUQT2QhOO-6" style="edgeStyle=none;curved=1;rounded=0;orthogonalLoop=1;jettySize=auto;html=1;exitX=0.5;exitY=1;exitDx=0;exitDy=0;entryX=0.5;entryY=0;entryDx=0;entryDy=0;fontSize=12;startSize=8;endSize=8;" edge="1" parent="1" source="gaSyIaodAYESUQT2QhOO-7" target="gaSyIaodAYESUQT2QhOO-31">
          <mxGeometry relative="1" as="geometry" />
        </mxCell>
        <mxCell id="gaSyIaodAYESUQT2QhOO-7" value="&lt;span style=&quot;font-size: 16px;&quot;&gt;buyer 2&lt;/span&gt;" style="ellipse;whiteSpace=wrap;html=1;aspect=fixed;" vertex="1" parent="1">
          <mxGeometry x="-1182" y="47" width="80" height="80" as="geometry" />
        </mxCell>
        <mxCell id="gaSyIaodAYESUQT2QhOO-8" style="edgeStyle=none;curved=1;rounded=0;orthogonalLoop=1;jettySize=auto;html=1;exitX=0.5;exitY=1;exitDx=0;exitDy=0;entryX=0.5;entryY=0;entryDx=0;entryDy=0;fontSize=12;startSize=8;endSize=8;" edge="1" parent="1" source="gaSyIaodAYESUQT2QhOO-9" target="gaSyIaodAYESUQT2QhOO-26">
          <mxGeometry relative="1" as="geometry" />
        </mxCell>
        <mxCell id="gaSyIaodAYESUQT2QhOO-9" value="&lt;span style=&quot;font-size: 16px;&quot;&gt;buyer 4&lt;/span&gt;" style="ellipse;whiteSpace=wrap;html=1;aspect=fixed;" vertex="1" parent="1">
          <mxGeometry x="-520" y="28" width="80" height="80" as="geometry" />
        </mxCell>
        <mxCell id="gaSyIaodAYESUQT2QhOO-10" style="edgeStyle=none;curved=1;rounded=0;orthogonalLoop=1;jettySize=auto;html=1;exitX=0.5;exitY=1;exitDx=0;exitDy=0;entryX=0.5;entryY=0;entryDx=0;entryDy=0;fontSize=12;startSize=8;endSize=8;" edge="1" parent="1" source="gaSyIaodAYESUQT2QhOO-11" target="gaSyIaodAYESUQT2QhOO-23">
          <mxGeometry relative="1" as="geometry" />
        </mxCell>
        <mxCell id="gaSyIaodAYESUQT2QhOO-11" value="&lt;span style=&quot;font-size: 16px;&quot;&gt;buyer 5&lt;/span&gt;" style="ellipse;whiteSpace=wrap;html=1;aspect=fixed;" vertex="1" parent="1">
          <mxGeometry x="-1365" y="39" width="80" height="80" as="geometry" />
        </mxCell>
        <mxCell id="gaSyIaodAYESUQT2QhOO-12" style="edgeStyle=none;curved=1;rounded=0;orthogonalLoop=1;jettySize=auto;html=1;exitX=0.5;exitY=1;exitDx=0;exitDy=0;fontSize=12;startSize=8;endSize=8;" edge="1" parent="1" source="gaSyIaodAYESUQT2QhOO-13" target="gaSyIaodAYESUQT2QhOO-24">
          <mxGeometry relative="1" as="geometry" />
        </mxCell>
        <mxCell id="gaSyIaodAYESUQT2QhOO-13" value="&lt;span style=&quot;font-size: 16px;&quot;&gt;buyer 8&lt;/span&gt;" style="ellipse;whiteSpace=wrap;html=1;aspect=fixed;" vertex="1" parent="1">
          <mxGeometry x="-1270" y="41" width="80" height="80" as="geometry" />
        </mxCell>
        <mxCell id="gaSyIaodAYESUQT2QhOO-14" style="edgeStyle=none;curved=1;rounded=0;orthogonalLoop=1;jettySize=auto;html=1;exitX=0.5;exitY=1;exitDx=0;exitDy=0;fontSize=12;startSize=8;endSize=8;" edge="1" parent="1" source="gaSyIaodAYESUQT2QhOO-15" target="gaSyIaodAYESUQT2QhOO-29">
          <mxGeometry relative="1" as="geometry" />
        </mxCell>
        <mxCell id="gaSyIaodAYESUQT2QhOO-15" value="&lt;font style=&quot;font-size: 16px;&quot;&gt;buyer 6&lt;/font&gt;" style="ellipse;whiteSpace=wrap;html=1;aspect=fixed;" vertex="1" parent="1">
          <mxGeometry x="-855" y="56" width="80" height="80" as="geometry" />
        </mxCell>
        <mxCell id="gaSyIaodAYESUQT2QhOO-16" style="edgeStyle=none;curved=1;rounded=0;orthogonalLoop=1;jettySize=auto;html=1;exitX=0.5;exitY=1;exitDx=0;exitDy=0;entryX=0.5;entryY=0;entryDx=0;entryDy=0;fontSize=12;startSize=8;endSize=8;" edge="1" parent="1" source="gaSyIaodAYESUQT2QhOO-17" target="gaSyIaodAYESUQT2QhOO-27">
          <mxGeometry relative="1" as="geometry" />
        </mxCell>
        <mxCell id="gaSyIaodAYESUQT2QhOO-17" value="&lt;span style=&quot;font-size: 16px;&quot;&gt;buyer 9&lt;/span&gt;" style="ellipse;whiteSpace=wrap;html=1;aspect=fixed;" vertex="1" parent="1">
          <mxGeometry x="-631" y="28" width="80" height="80" as="geometry" />
        </mxCell>
        <mxCell id="gaSyIaodAYESUQT2QhOO-18" style="edgeStyle=none;curved=1;rounded=0;orthogonalLoop=1;jettySize=auto;html=1;exitX=0.5;exitY=1;exitDx=0;exitDy=0;entryX=0.5;entryY=0;entryDx=0;entryDy=0;fontSize=12;startSize=8;endSize=8;" edge="1" parent="1" source="gaSyIaodAYESUQT2QhOO-19" target="gaSyIaodAYESUQT2QhOO-31">
          <mxGeometry relative="1" as="geometry" />
        </mxCell>
        <mxCell id="gaSyIaodAYESUQT2QhOO-19" value="&lt;span style=&quot;font-size: 16px;&quot;&gt;buyer 7&lt;/span&gt;" style="ellipse;whiteSpace=wrap;html=1;aspect=fixed;" vertex="1" parent="1">
          <mxGeometry x="-1081" y="47" width="80" height="80" as="geometry" />
        </mxCell>
        <mxCell id="gaSyIaodAYESUQT2QhOO-20" style="edgeStyle=none;curved=1;rounded=0;orthogonalLoop=1;jettySize=auto;html=1;exitX=0.5;exitY=1;exitDx=0;exitDy=0;entryX=0.5;entryY=0;entryDx=0;entryDy=0;fontSize=12;startSize=8;endSize=8;" edge="1" parent="1" source="gaSyIaodAYESUQT2QhOO-21" target="gaSyIaodAYESUQT2QhOO-28">
          <mxGeometry relative="1" as="geometry" />
        </mxCell>
        <mxCell id="gaSyIaodAYESUQT2QhOO-21" value="&lt;font style=&quot;font-size: 16px;&quot;&gt;buyer 10&lt;/font&gt;" style="ellipse;whiteSpace=wrap;html=1;aspect=fixed;" vertex="1" parent="1">
          <mxGeometry x="-751" y="28" width="80" height="80" as="geometry" />
        </mxCell>
        <mxCell id="gaSyIaodAYESUQT2QhOO-22" value="&lt;font style=&quot;font-size: 16px;&quot;&gt;product 9&lt;/font&gt;" style="whiteSpace=wrap;html=1;aspect=fixed;" vertex="1" parent="1">
          <mxGeometry x="-414" y="161" width="80" height="80" as="geometry" />
        </mxCell>
        <mxCell id="gaSyIaodAYESUQT2QhOO-23" value="&lt;font style=&quot;font-size: 16px;&quot;&gt;product 1&lt;/font&gt;" style="whiteSpace=wrap;html=1;aspect=fixed;" vertex="1" parent="1">
          <mxGeometry x="-1363" y="165" width="80" height="80" as="geometry" />
        </mxCell>
        <mxCell id="gaSyIaodAYESUQT2QhOO-24" value="&lt;font style=&quot;font-size: 16px;&quot;&gt;product 7&lt;/font&gt;" style="whiteSpace=wrap;html=1;aspect=fixed;" vertex="1" parent="1">
          <mxGeometry x="-1257" y="169" width="80" height="80" as="geometry" />
        </mxCell>
        <mxCell id="gaSyIaodAYESUQT2QhOO-25" value="&lt;font style=&quot;font-size: 16px;&quot;&gt;product 2&lt;/font&gt;" style="whiteSpace=wrap;html=1;aspect=fixed;" vertex="1" parent="1">
          <mxGeometry x="-304" y="161" width="80" height="80" as="geometry" />
        </mxCell>
        <mxCell id="gaSyIaodAYESUQT2QhOO-26" value="&lt;font style=&quot;font-size: 16px;&quot;&gt;product 3&lt;/font&gt;" style="whiteSpace=wrap;html=1;aspect=fixed;" vertex="1" parent="1">
          <mxGeometry x="-516" y="161" width="80" height="80" as="geometry" />
        </mxCell>
        <mxCell id="gaSyIaodAYESUQT2QhOO-27" value="&lt;font style=&quot;font-size: 16px;&quot;&gt;product 8&lt;/font&gt;" style="whiteSpace=wrap;html=1;aspect=fixed;" vertex="1" parent="1">
          <mxGeometry x="-633" y="161" width="80" height="80" as="geometry" />
        </mxCell>
        <mxCell id="gaSyIaodAYESUQT2QhOO-28" value="&lt;font style=&quot;font-size: 16px;&quot;&gt;product 10&lt;/font&gt;" style="whiteSpace=wrap;html=1;aspect=fixed;" vertex="1" parent="1">
          <mxGeometry x="-751" y="161" width="80" height="80" as="geometry" />
        </mxCell>
        <mxCell id="gaSyIaodAYESUQT2QhOO-29" value="&lt;font style=&quot;font-size: 16px;&quot;&gt;product 4&lt;/font&gt;" style="whiteSpace=wrap;html=1;aspect=fixed;" vertex="1" parent="1">
          <mxGeometry x="-845" y="165" width="80" height="80" as="geometry" />
        </mxCell>
        <mxCell id="gaSyIaodAYESUQT2QhOO-30" value="&lt;font style=&quot;font-size: 16px;&quot;&gt;product 5&lt;/font&gt;" style="whiteSpace=wrap;html=1;aspect=fixed;" vertex="1" parent="1">
          <mxGeometry x="-956" y="169" width="80" height="80" as="geometry" />
        </mxCell>
        <mxCell id="gaSyIaodAYESUQT2QhOO-31" value="&lt;font style=&quot;font-size: 16px;&quot;&gt;product 2&lt;/font&gt;" style="whiteSpace=wrap;html=1;aspect=fixed;" vertex="1" parent="1">
          <mxGeometry x="-1136" y="169" width="80" height="80" as="geometry" />
        </mxCell>
      </root>
    </mxGraphModel>
  </diagram>
</mxfile>
